# xmcd
#
# Track frame offsets:
#	150
#	12785
#	26223
#	51985
#	64770
#	94755
#	116063
#	129135
#	156610
#	173800
#	187018
#	201260
#
# Disc length: 2818
#
# Revision: 1
# Processed by: cddbd v1.5.1PL0 Copyright (c) Steve Scherf et al.
# Submitted via: CDex 1.40Release
# Normalized: r0:DSETVAR1,TDELIM( - )
#
DISCID=a90b000c
DTITLE=Various Artist - Raw Blues Vol 1
DYEAR=1992
DGENRE=Blues
TTITLE0=John Lee Hooker - I'm In The Mood
TTITLE1=Muddy waters - Can't Lose What You Ain't Never Had
TTITLE2=Howling Wolf - Red Rooster
TTITLE3=Lightniin' Hopkins - Life I used To live
TTITLE4=Gregg Smith - Young Men Don't Get The Blues
TTITLE5=Mike Bloomfield - Women Lovin' Each Other
TTITLE6=Jimmy Reed - Shame Shame Shame
TTITLE7=Little Walter Otis Rush - It's Hard For Me To Believe Baby
TTITLE8=Mississippi John Hurt - Nobodys Business But Mine
TTITLE9=Elnmore James - Dust My Broom
TTITLE10=Canned Heat - Rolling And Tumbling
TTITLE11=John Lee Hooker - Dimples
EXTD=YEAR: 1992 ID3G: 0
EXTT0=
EXTT1=
EXTT2=
EXTT3=
EXTT4=
EXTT5=
EXTT6=
EXTT7=
EXTT8=
EXTT9=
EXTT10=
EXTT11=
PLAYORDER=
